<svg width="512" height="512" viewBox="0 0 512 512" fill="none" xmlns="http://www.w3.org/2000/svg">
<path d="M389.547 134.74C389.434 134.529 389.248 134.366 389.024 134.283C364.146 122.849 337.893 114.694 310.921 110.019C310.679 109.975 310.429 110.008 310.206 110.113C309.983 110.219 309.799 110.392 309.68 110.608C306.103 117.111 302.855 123.79 299.95 130.62C270.86 126.198 241.271 126.198 212.182 130.62C209.265 123.773 205.973 117.092 202.321 110.608C202.195 110.398 202.01 110.231 201.789 110.126C201.568 110.021 201.322 109.984 201.08 110.019C174.061 114.673 147.762 122.829 122.846 134.283C122.628 134.375 122.444 134.536 122.324 134.74C72.5622 209.231 58.9137 281.824 65.5747 353.568C65.5936 353.748 65.6498 353.923 65.7397 354.081C65.8297 354.238 65.9514 354.375 66.0971 354.483C95.0832 375.955 127.499 392.341 161.963 402.944C162.211 403.021 162.476 403.018 162.722 402.936C162.968 402.854 163.182 402.697 163.334 402.487C170.729 392.405 177.282 381.731 182.926 370.572C183.001 370.418 183.043 370.251 183.051 370.08C183.059 369.909 183.031 369.738 182.969 369.579C182.908 369.419 182.815 369.274 182.695 369.152C182.575 369.03 182.431 368.935 182.273 368.871C171.919 364.898 161.896 360.109 152.298 354.549C152.129 354.445 151.986 354.301 151.884 354.131C151.781 353.96 151.721 353.768 151.708 353.569C151.695 353.37 151.73 353.171 151.81 352.989C151.89 352.807 152.013 352.646 152.168 352.521C154.192 351.017 156.216 349.448 158.11 347.878C158.277 347.731 158.483 347.635 158.702 347.6C158.922 347.565 159.147 347.594 159.351 347.682C222.173 376.392 290.22 376.392 352.324 347.682C352.522 347.585 352.743 347.546 352.963 347.569C353.182 347.592 353.391 347.676 353.564 347.813C355.458 349.382 357.483 351.017 359.507 352.521C359.662 352.646 359.784 352.807 359.864 352.989C359.944 353.171 359.98 353.37 359.967 353.569C359.954 353.768 359.894 353.96 359.791 354.131C359.688 354.301 359.546 354.445 359.376 354.549C349.803 360.138 339.776 364.907 329.402 368.806C329.243 368.869 329.1 368.965 328.98 369.087C328.86 369.209 328.766 369.354 328.705 369.513C328.644 369.673 328.616 369.844 328.624 370.014C328.631 370.185 328.674 370.353 328.749 370.506C334.492 381.61 341.039 392.277 348.34 402.421C348.492 402.632 348.706 402.789 348.952 402.871C349.198 402.953 349.464 402.956 349.711 402.879C384.275 392.323 416.785 375.934 445.839 354.418C445.987 354.313 446.111 354.177 446.202 354.018C446.292 353.86 446.346 353.684 446.361 353.502C454.328 270.641 432.908 198.636 389.547 134.74ZM192.329 309.881C173.391 309.881 157.849 292.484 157.849 271.164C157.849 249.844 173.13 232.382 192.329 232.382C211.725 232.382 227.136 249.909 226.81 271.099C226.81 292.484 211.529 309.881 192.329 309.881ZM319.933 309.881C300.995 309.881 285.453 292.484 285.453 271.164C285.453 249.844 300.668 232.382 319.933 232.382C339.328 232.382 354.74 249.909 354.413 271.099C354.413 292.484 339.263 309.881 319.933 309.881Z" fill="#EFEFEF"/>
</svg>
