<svg width="512" height="512" viewBox="0 0 512 512" fill="none" xmlns="http://www.w3.org/2000/svg">
<path d="M256.039 165.751C206.096 165.751 165.811 206.045 165.811 256C165.811 305.955 206.096 346.249 256.039 346.249C305.983 346.249 346.268 305.955 346.268 256C346.268 206.045 305.983 165.751 256.039 165.751ZM256.039 314.673C223.764 314.673 197.379 288.36 197.379 256C197.379 223.64 223.686 197.327 256.039 197.327C288.392 197.327 314.7 223.64 314.7 256C314.7 288.36 288.314 314.673 256.039 314.673ZM371.004 162.06C371.004 173.763 361.581 183.11 349.958 183.11C338.258 183.11 328.912 173.684 328.912 162.06C328.912 150.436 338.336 141.01 349.958 141.01C361.581 141.01 371.004 150.436 371.004 162.06ZM430.763 183.425C429.428 155.226 422.989 130.249 402.336 109.67C381.762 89.0916 356.79 82.6509 328.599 81.237C299.543 79.5877 212.456 79.5877 183.401 81.237C155.289 82.5723 130.317 89.013 109.664 109.592C89.011 130.171 82.6502 155.148 81.2367 183.346C79.5878 212.407 79.5878 299.514 81.2367 328.575C82.5718 356.774 89.011 381.751 109.664 402.329C130.317 422.908 155.21 429.349 183.401 430.762C212.456 432.412 299.543 432.412 328.599 430.762C356.79 429.428 381.762 422.987 402.336 402.329C422.91 381.751 429.35 356.774 430.763 328.575C432.412 299.514 432.412 212.486 430.763 183.425ZM393.227 359.758C387.101 375.153 375.244 387.014 359.774 393.219C336.609 402.408 281.639 400.287 256.039 400.287C230.44 400.287 175.391 402.329 152.304 393.219C136.913 387.092 125.055 375.232 118.851 359.758C109.664 336.587 111.784 281.606 111.784 256C111.784 230.394 109.742 175.334 118.851 152.242C124.976 136.847 136.834 124.986 152.304 118.781C175.47 109.592 230.44 111.713 256.039 111.713C281.639 111.713 336.687 109.67 359.774 118.781C375.166 124.908 387.024 136.768 393.227 152.242C402.414 175.413 400.294 230.394 400.294 256C400.294 281.606 402.414 336.666 393.227 359.758Z" fill="#EFEFEF"/>
</svg>
