<svg width="512" height="512" viewBox="0 0 512 512" fill="none" xmlns="http://www.w3.org/2000/svg">
<path d="M256.043 157.547C201.559 157.547 157.612 201.504 157.612 256C157.612 310.496 201.559 354.453 256.043 354.453C310.527 354.453 354.474 310.496 354.474 256C354.474 201.504 310.527 157.547 256.043 157.547ZM256.043 320.007C220.834 320.007 192.05 291.302 192.05 256C192.05 220.698 220.748 191.993 256.043 191.993C291.337 191.993 320.036 220.698 320.036 256C320.036 291.302 291.252 320.007 256.043 320.007ZM381.459 153.52C381.459 166.287 371.179 176.484 358.5 176.484C345.736 176.484 335.541 166.201 335.541 153.52C335.541 140.839 345.821 130.556 358.5 130.556C371.179 130.556 381.459 140.839 381.459 153.52ZM446.651 176.827C445.194 146.065 438.17 118.817 415.64 96.3677C393.195 73.9181 365.953 66.8919 335.199 65.3495C303.502 63.5502 208.498 63.5502 176.801 65.3495C146.133 66.8062 118.891 73.8324 96.3605 96.282C73.8302 118.732 66.8912 145.98 65.3492 176.741C63.5503 208.444 63.5503 303.47 65.3492 335.173C66.8056 365.935 73.8302 393.183 96.3605 415.632C118.891 438.082 146.047 445.108 176.801 446.65C208.498 448.45 303.502 448.45 335.199 446.65C365.953 445.194 393.195 438.168 415.64 415.632C438.084 393.183 445.109 365.935 446.651 335.173C448.45 303.47 448.45 208.53 446.651 176.827ZM405.702 369.191C399.02 385.985 386.085 398.924 369.208 405.693C343.937 415.718 283.97 413.404 256.043 413.404C228.116 413.404 168.063 415.632 142.877 405.693C126.087 399.009 113.151 386.071 106.383 369.191C96.3605 343.913 98.6735 283.934 98.6735 256C98.6735 228.066 96.4462 168.001 106.383 142.809C113.065 126.015 126.001 113.076 142.877 106.307C168.149 96.282 228.116 98.5956 256.043 98.5956C283.97 98.5956 344.022 96.3677 369.208 106.307C385.999 112.991 398.935 125.929 405.702 142.809C415.725 168.087 413.412 228.066 413.412 256C413.412 283.934 415.725 343.999 405.702 369.191Z" fill="#EFEFEF"/>
</svg>
