<svg width="120" height="180" viewBox="0 0 120 180" fill="none" xmlns="http://www.w3.org/2000/svg">
<g clip-path="url(#clip0_425_400)">
<path fill-rule="evenodd" clip-rule="evenodd" d="M0 2.00001C0 0.895436 0.895431 0 2 0H36V14C36 15.1046 36.8954 16 38 16H82C83.1046 16 84 15.1046 84 14V0H118C119.105 0 120 0.895431 120 2V178C120 179.105 119.105 180 118 180H2C0.895429 180 0 179.105 0 178V2.00001ZM15 20H105V17H113L115 19V27H112V161H115V169L113 171H105V168H15V171H7L5 169V161H8V27H5V19L7 17H15V20Z" fill="#EFEFEF" fill-opacity="0.75"/>
<path d="M37 0H83V14C83 14.5523 82.5523 15 82 15H38C37.4477 15 37 14.5523 37 14V0Z" fill="#EFEFEF"/>
<rect x="9" y="21" width="102" height="146" rx="1" fill="#EFEFEF"/>
</g>
<defs>
<clipPath id="clip0_425_400">
<rect width="120" height="180" fill="white"/>
</clipPath>
</defs>
</svg>
