<svg width="1024" height="1024" viewBox="0 0 1024 1024" fill="none" xmlns="http://www.w3.org/2000/svg">
<g opacity="0.5" clip-path="url(#clip0_523_484)">
<g clip-path="url(#clip1_523_484)">
<path d="M486.572 -143.794C483.115 -147.424 477.93 -148.807 473.09 -147.539C468.25 -146.272 464.505 -142.412 463.237 -137.572L454.134 -101.561L418.411 -111.644C413.571 -113.027 408.386 -111.644 404.871 -108.129C401.356 -104.615 399.973 -99.4291 401.356 -94.5893L411.439 -58.8666L375.429 -49.7055C370.589 -48.4955 366.786 -44.6928 365.461 -39.8529C364.136 -35.0131 365.576 -29.8851 369.206 -26.4281L395.825 -0.500381L369.206 25.4274C365.576 28.8844 364.193 34.0699 365.461 38.9098C366.728 43.7496 370.589 47.4947 375.429 48.7623L411.439 57.8658L401.356 93.5885C399.973 98.4283 401.356 103.614 404.871 107.129C408.386 110.643 413.571 112.026 418.411 110.643L454.134 100.56L463.237 136.571C464.447 141.411 468.25 145.214 473.09 146.539C477.93 147.864 483.057 146.423 486.572 142.851L512.5 116.232L538.428 142.851C541.942 146.423 547.07 147.864 551.91 146.539C556.75 145.214 560.495 141.411 561.763 136.571L570.866 100.56L606.589 110.643C611.429 112.026 616.614 110.643 620.129 107.129C623.643 103.614 625.026 98.4283 623.643 93.5885L613.56 57.8658L649.571 48.7623C654.411 47.5524 658.214 43.7496 659.539 38.9098C660.864 34.0699 659.424 28.8844 655.851 25.4274L629.232 -0.500381L655.851 -26.4281C659.424 -29.9428 660.864 -35.0707 659.539 -39.9105C658.214 -44.7504 654.411 -48.4955 649.571 -49.7631L613.56 -58.8666L623.643 -94.5893C625.026 -99.4291 623.643 -104.615 620.129 -108.129C616.614 -111.644 611.429 -113.027 606.589 -111.644L570.866 -101.561L561.705 -137.572C560.495 -142.412 556.692 -146.214 551.852 -147.539C547.013 -148.865 541.885 -147.424 538.428 -143.794L512.5 -117.175L486.572 -143.794Z" fill="#5B5B5B"/>
</g>
<g clip-path="url(#clip2_523_484)">
<path d="M486.572 880.206C483.115 876.576 477.93 875.193 473.09 876.461C468.25 877.728 464.505 881.588 463.237 886.428L454.134 922.439L418.411 912.356C413.571 910.973 408.386 912.356 404.871 915.871C401.356 919.385 399.973 924.571 401.356 929.411L411.439 965.133L375.429 974.295C370.589 975.505 366.786 979.307 365.461 984.147C364.136 988.987 365.576 994.115 369.206 997.572L395.825 1023.5L369.206 1049.43C365.576 1052.88 364.193 1058.07 365.461 1062.91C366.728 1067.75 370.589 1071.49 375.429 1072.76L411.439 1081.87L401.356 1117.59C399.973 1122.43 401.356 1127.61 404.871 1131.13C408.386 1134.64 413.571 1136.03 418.411 1134.64L454.134 1124.56L463.237 1160.57C464.447 1165.41 468.25 1169.21 473.09 1170.54C477.93 1171.86 483.057 1170.42 486.572 1166.85L512.5 1140.23L538.428 1166.85C541.942 1170.42 547.07 1171.86 551.91 1170.54C556.75 1169.21 560.495 1165.41 561.763 1160.57L570.866 1124.56L606.589 1134.64C611.429 1136.03 616.614 1134.64 620.129 1131.13C623.643 1127.61 625.026 1122.43 623.643 1117.59L613.56 1081.87L649.571 1072.76C654.411 1071.55 658.214 1067.75 659.539 1062.91C660.864 1058.07 659.424 1052.88 655.851 1049.43L629.232 1023.5L655.851 997.572C659.424 994.057 660.864 988.929 659.539 984.089C658.214 979.25 654.411 975.505 649.571 974.237L613.56 965.133L623.643 929.411C625.026 924.571 623.643 919.385 620.129 915.871C616.614 912.356 611.429 910.973 606.589 912.356L570.866 922.439L561.705 886.428C560.495 881.588 556.692 877.786 551.852 876.461C547.013 875.135 541.885 876.576 538.428 880.206L512.5 906.825L486.572 880.206Z" fill="#5B5B5B"/>
</g>
<path d="M79.6483 405.174C80.154 398.396 76.7018 391.904 70.7711 388.48C64.8405 385.056 57.5404 385.34 51.8755 389.139L-15.9455 435.009L-91.0844 405.253C-97.3714 402.78 -104.531 404.045 -109.515 408.558C-114.499 413.071 -116.587 420.028 -114.806 426.519L-93.2557 505.221L-145.664 568.602C-149.968 573.829 -150.952 581.102 -148.154 587.28C-145.357 593.458 -139.291 597.539 -132.497 597.798L-51.5722 600.496L-8.77302 669.23C-5.15187 674.984 1.38714 678.245 8.16428 677.531C14.9414 676.816 20.7196 672.376 23.0947 666.035L51.7319 588.93L130.665 568.242C137.177 566.539 142.206 561.28 143.574 554.679C144.943 548.078 142.507 541.273 137.222 537.065L73.834 486.843L79.6483 405.174Z" fill="#5B5B5B"/>
<path d="M1103.65 405.174C1104.15 398.396 1100.7 391.904 1094.77 388.48C1088.84 385.056 1081.54 385.34 1075.88 389.139L1008.05 435.009L932.916 405.253C926.629 402.78 919.469 404.045 914.485 408.558C909.501 413.071 907.413 420.028 909.194 426.519L930.744 505.221L878.336 568.602C874.032 573.829 873.048 581.102 875.846 587.28C878.643 593.458 884.709 597.539 891.503 597.798L972.428 600.496L1015.23 669.23C1018.85 674.984 1025.39 678.245 1032.16 677.531C1038.94 676.816 1044.72 672.376 1047.09 666.035L1075.73 588.93L1154.67 568.242C1161.18 566.539 1166.21 561.28 1167.57 554.679C1168.94 548.078 1166.51 541.273 1161.22 537.065L1097.83 486.843L1103.65 405.174Z" fill="#5B5B5B"/>
</g>
<defs>
<clipPath id="clip0_523_484">
<rect width="1024" height="1024" fill="white"/>
</clipPath>
<clipPath id="clip1_523_484">
<rect width="295" height="295" fill="white" transform="translate(365 -148)"/>
</clipPath>
<clipPath id="clip2_523_484">
<rect width="295" height="295" fill="white" transform="translate(365 876)"/>
</clipPath>
</defs>
</svg>
