<svg width="1024" height="1024" viewBox="0 0 1024 1024" fill="none" xmlns="http://www.w3.org/2000/svg">
<g opacity="0.5" clip-path="url(#clip0_528_550)">
<g clip-path="url(#clip1_528_550)">
<path d="M557.507 -68.7264C556.126 -71.4667 554.694 -74.1781 553.133 -76.8817C538.391 -102.416 517.422 -120.35 496.121 -129.147C474.85 -137.894 454.293 -137.308 438.172 -128C422.05 -118.692 411.264 -101.183 408.204 -78.3876C405.172 -55.5422 410.219 -28.4159 424.961 -2.88169C426.522 -0.178071 428.154 2.41767 429.836 4.98451L485.661 -27.246L522.661 36.8399L506.64 46.0899C503.135 48.1134 500.214 50.8011 497.99 53.8873L399.646 22.415L413.815 14.2345C412.133 11.6677 410.5 9.07193 408.939 6.36831C390.439 -25.6746 385.02 -60.7302 391.48 -89.894C355.292 -47.2386 354.752 2.00592 362.284 31.7026C363.678 37.2395 370.006 39.5275 374.963 36.6658L377.967 34.9314L492.813 71.6294C493.04 75.8377 494.228 80.0919 496.482 83.9971L524.232 132.062C531.893 145.329 548.872 149.879 562.14 142.219L610.204 114.469C623.472 106.809 628.021 89.8293 620.361 76.5615L592.611 28.4971C590.357 24.5919 587.266 21.4361 583.735 19.1357L609.377 -98.6733L612.381 -100.408C617.338 -103.269 618.52 -109.893 614.422 -113.869C592.47 -135.241 549.553 -159.395 494.518 -149.383C523.005 -140.396 550.683 -118.125 569.154 -86.1317C570.715 -83.4281 572.147 -80.7167 573.529 -77.9764L587.698 -86.1569L565.781 14.7482C561.997 15.1308 558.209 16.3165 554.704 18.3399L538.683 27.5899L501.683 -36.496L557.507 -68.7264Z" fill="#5B5B5B"/>
</g>
<g clip-path="url(#clip2_528_550)">
<path d="M556.507 955.273C555.126 952.533 553.694 949.821 552.133 947.118C537.391 921.584 516.422 903.65 495.121 894.853C473.85 886.106 453.293 886.692 437.172 896C421.05 905.308 410.264 922.817 407.204 945.612C404.172 968.457 409.219 995.584 423.961 1021.12C425.522 1023.82 427.154 1026.42 428.836 1028.98L484.661 996.754L521.661 1060.84L505.64 1070.09C502.135 1072.11 499.214 1074.8 496.99 1077.89L398.646 1046.41L412.815 1038.23C411.133 1035.67 409.5 1033.07 407.939 1030.37C389.439 998.325 384.02 963.269 390.48 934.105C354.292 976.761 353.752 1026.01 361.284 1055.7C362.678 1061.24 369.006 1063.53 373.963 1060.67L376.967 1058.93L491.813 1095.63C492.04 1099.84 493.228 1104.09 495.482 1108L523.232 1156.06C530.893 1169.33 547.872 1173.88 561.14 1166.22L609.204 1138.47C622.472 1130.81 627.021 1113.83 619.361 1100.56L591.611 1052.5C589.357 1048.59 586.266 1045.44 582.735 1043.14L608.377 925.326L611.381 923.592C616.338 920.73 617.52 914.106 613.422 910.13C591.47 888.759 548.553 864.605 493.518 874.616C522.005 883.604 549.683 905.875 568.154 937.868C569.715 940.571 571.147 943.283 572.529 946.023L586.698 937.843L564.781 1038.75C560.997 1039.13 557.209 1040.32 553.704 1042.34L537.683 1051.59L500.683 987.504L556.507 955.273Z" fill="#5B5B5B"/>
</g>
<g clip-path="url(#clip3_528_550)">
<path d="M-94.2065 395.528L-114.173 407.056C-127.401 414.693 -131.939 431.617 -124.305 444.84L-92.0395 500.726C-81.87 518.34 -59.2759 524.389 -41.6552 514.216L22.2382 477.327C39.8588 467.154 45.9168 444.562 35.7474 426.948L3.48178 371.062C-4.1525 357.839 -21.0785 353.307 -34.3064 360.944L-54.2731 372.472L-31.2262 412.391C-28.6911 416.782 -30.2108 422.449 -34.6035 424.985L-58.5635 438.819C-62.9562 441.355 -68.6245 439.837 -71.1596 435.446L-94.2065 395.528ZM-112.303 576.294C-129.924 586.468 -135.982 609.059 -125.812 626.673L-88.9375 690.543C-78.7681 708.157 -56.1739 714.206 -38.5533 704.033L41.3135 657.922C58.9341 647.749 64.9921 625.157 54.8227 607.543L17.9477 543.673C7.77828 526.059 -14.8159 520.01 -32.4365 530.183L-52.4032 541.711L-29.3563 581.629C-26.8212 586.02 -28.341 591.688 -32.7336 594.224L-56.6937 608.057C-61.0863 610.594 -66.7546 609.076 -69.2897 604.685L-92.3366 564.767L-112.303 576.294ZM105.207 621.033L185.074 574.922C202.694 564.749 208.752 542.157 198.583 524.543L161.708 460.673C151.538 443.059 128.944 437.01 111.324 447.183L91.357 458.711L114.404 498.629C116.939 503.02 115.419 508.688 111.027 511.224L87.0666 525.057C82.6739 527.594 77.0057 526.076 74.4705 521.685L51.4236 481.767L31.4569 493.294C23.9694 497.617 18.5501 504.139 15.6156 511.622C21.0576 515.399 25.797 520.38 29.3117 526.468L75.4054 606.304C78.9201 612.392 80.8642 618.987 81.4144 625.588C89.3617 626.788 97.7194 625.356 105.207 621.033Z" fill="#5B5B5B"/>
</g>
<g clip-path="url(#clip4_528_550)">
<path d="M929.794 395.528L909.827 407.056C896.599 414.693 892.061 431.617 899.695 444.84L931.961 500.726C942.13 518.34 964.724 524.389 982.345 514.216L1046.24 477.327C1063.86 467.154 1069.92 444.562 1059.75 426.948L1027.48 371.062C1019.85 357.839 1002.92 353.307 989.694 360.944L969.727 372.472L992.774 412.391C995.309 416.782 993.789 422.449 989.396 424.985L965.436 438.819C961.044 441.355 955.376 439.837 952.84 435.446L929.794 395.528ZM911.697 576.294C894.076 586.468 888.018 609.059 898.188 626.673L935.062 690.543C945.232 708.157 967.826 714.206 985.447 704.033L1065.31 657.922C1082.93 647.749 1088.99 625.157 1078.82 607.543L1041.95 543.673C1031.78 526.059 1009.18 520.01 991.564 530.183L971.597 541.711L994.644 581.629C997.179 586.02 995.659 591.688 991.266 594.224L967.306 608.057C962.914 610.594 957.245 609.076 954.71 604.685L931.663 564.767L911.697 576.294ZM1129.21 621.033L1209.07 574.922C1226.69 564.749 1232.75 542.157 1222.58 524.543L1185.71 460.673C1175.54 443.059 1152.94 437.01 1135.32 447.183L1115.36 458.711L1138.4 498.629C1140.94 503.02 1139.42 508.688 1135.03 511.224L1111.07 525.057C1106.67 527.594 1101.01 526.076 1098.47 521.685L1075.42 481.767L1055.46 493.294C1047.97 497.617 1042.55 504.139 1039.62 511.622C1045.06 515.399 1049.8 520.38 1053.31 526.468L1099.41 606.304C1102.92 612.392 1104.86 618.987 1105.41 625.588C1113.36 626.788 1121.72 625.356 1129.21 621.033Z" fill="#5B5B5B"/>
</g>
</g>
<defs>
<clipPath id="clip0_528_550">
<rect width="1024" height="1024" fill="white"/>
</clipPath>
<clipPath id="clip1_528_550">
<rect width="296" height="296" fill="white" transform="translate(310 -54) rotate(-30)"/>
</clipPath>
<clipPath id="clip2_528_550">
<rect width="296" height="296" fill="white" transform="translate(309 970) rotate(-30)"/>
</clipPath>
<clipPath id="clip3_528_550">
<rect width="332" height="295" fill="white" transform="translate(-218 467) rotate(-30)"/>
</clipPath>
<clipPath id="clip4_528_550">
<rect width="332" height="295" fill="white" transform="translate(806 467) rotate(-30)"/>
</clipPath>
</defs>
</svg>
