<svg width="1024" height="1024" viewBox="0 0 1024 1024" fill="none" xmlns="http://www.w3.org/2000/svg">
<g opacity="0.5" clip-path="url(#clip0_522_472)">
<g clip-path="url(#clip1_522_472)">
<path d="M325.141 -28.8641C321.738 -34.7582 323.746 -42.24 329.645 -45.6458L349.826 -57.2973C359.584 -62.931 371.508 -62.252 380.456 -56.0736L562.75 -161.321C574.415 -168.056 589.328 -161.893 592.766 -148.87L613.548 -70.8776C617.812 -54.7857 610.775 -37.7823 596.36 -29.4598L468.399 44.4183L478.086 55.6655C481.953 60.1099 488.442 61.2087 493.543 58.2638L621.415 -15.563C627.314 -18.9689 634.798 -16.967 638.2 -11.073C641.603 -5.17895 639.595 2.3029 633.696 5.70871L505.824 79.5355C490.478 88.3958 471.011 85.0995 459.499 71.7152L367.274 -35.168C365.991 -36.6728 363.837 -37.0243 362.107 -36.0256L341.926 -24.3741C336.027 -20.9683 328.544 -22.9701 325.141 -28.8641ZM494.492 133.349C492.879 130.556 491.832 127.472 491.412 124.273C490.992 121.075 491.206 117.824 492.043 114.708C492.88 111.591 494.322 108.669 496.288 106.109C498.253 103.548 500.704 101.4 503.5 99.7857C506.296 98.1715 509.382 97.1234 512.582 96.7011C515.782 96.2788 519.034 96.4907 522.151 97.3245C525.269 98.1584 528.191 99.598 530.751 101.561C533.311 103.524 535.458 105.972 537.071 108.766C538.684 111.559 539.73 114.643 540.15 117.842C540.57 121.04 540.356 124.291 539.52 127.407C538.683 130.524 537.241 133.446 535.275 136.006C533.309 138.566 530.858 140.715 528.063 142.329C525.267 143.943 522.181 144.992 518.98 145.414C515.78 145.836 512.529 145.624 509.411 144.79C506.294 143.957 503.372 142.517 500.812 140.554C498.252 138.591 496.104 136.143 494.492 133.349ZM631.239 26.0357C636.885 22.7758 643.594 21.8904 649.89 23.5745C656.186 25.2586 661.553 29.3742 664.81 35.0158C668.067 40.6574 668.948 47.363 667.258 53.6573C665.569 59.9517 661.448 65.3193 655.801 68.5792C650.155 71.8392 643.446 72.7245 637.15 71.0404C630.854 69.3563 625.487 65.2407 622.23 59.5991C618.973 53.9575 618.092 47.2519 619.782 40.9576C621.471 34.6632 625.592 29.2957 631.239 26.0357Z" fill="#EFEFEF"/>
</g>
<g clip-path="url(#clip2_522_472)">
<path d="M325.141 995.136C321.738 989.242 323.746 981.76 329.645 978.354L349.826 966.703C359.584 961.069 371.508 961.748 380.456 967.926L562.75 862.679C574.415 855.944 589.328 862.107 592.766 875.13L613.548 953.122C617.812 969.214 610.775 986.218 596.36 994.54L468.399 1068.42L478.086 1079.67C481.953 1084.11 488.442 1085.21 493.543 1082.26L621.415 1008.44C627.314 1005.03 634.798 1007.03 638.2 1012.93C641.603 1018.82 639.595 1026.3 633.696 1029.71L505.824 1103.54C490.478 1112.4 471.011 1109.1 459.499 1095.72L367.274 988.832C365.991 987.327 363.837 986.976 362.107 987.974L341.926 999.626C336.027 1003.03 328.544 1001.03 325.141 995.136ZM494.492 1157.35C492.879 1154.56 491.832 1151.47 491.412 1148.27C490.992 1145.07 491.206 1141.82 492.043 1138.71C492.88 1135.59 494.322 1132.67 496.288 1130.11C498.253 1127.55 500.704 1125.4 503.5 1123.79C506.296 1122.17 509.382 1121.12 512.582 1120.7C515.782 1120.28 519.034 1120.49 522.151 1121.32C525.269 1122.16 528.191 1123.6 530.751 1125.56C533.311 1127.52 535.458 1129.97 537.071 1132.77C538.684 1135.56 539.73 1138.64 540.15 1141.84C540.57 1145.04 540.356 1148.29 539.52 1151.41C538.683 1154.52 537.241 1157.45 535.275 1160.01C533.309 1162.57 530.858 1164.72 528.063 1166.33C525.267 1167.94 522.181 1168.99 518.98 1169.41C515.78 1169.84 512.529 1169.62 509.411 1168.79C506.294 1167.96 503.372 1166.52 500.812 1164.55C498.252 1162.59 496.104 1160.14 494.492 1157.35ZM631.239 1050.04C636.885 1046.78 643.594 1045.89 649.89 1047.57C656.186 1049.26 661.553 1053.37 664.81 1059.02C668.067 1064.66 668.948 1071.36 667.258 1077.66C665.569 1083.95 661.448 1089.32 655.801 1092.58C650.155 1095.84 643.446 1096.72 637.15 1095.04C630.854 1093.36 625.487 1089.24 622.23 1083.6C618.973 1077.96 618.092 1071.25 619.782 1064.96C621.471 1058.66 625.592 1053.3 631.239 1050.04Z" fill="#EFEFEF"/>
</g>
<path d="M11.686 332C19.3387 327.582 29.1241 330.204 33.5424 337.856L167.662 570.158C172.08 577.81 169.458 587.596 161.805 592.014L-11.0245 691.797C-18.6771 696.215 -28.4626 693.593 -32.8809 685.941L-167 453.64C-171.418 445.987 -168.796 436.201 -161.144 431.783L11.686 332ZM-136.246 465.355C-140.072 467.564 -141.383 472.456 -139.174 476.283L-24.2044 675.416C-21.9952 679.242 -17.1025 680.553 -13.2762 678.344L151.281 583.337C155.107 581.128 156.419 576.235 154.21 572.409L39.2398 373.275C37.0307 369.449 32.1379 368.138 28.3116 370.347L-136.246 465.355ZM-101.157 406.371C-103.07 407.475 -103.726 409.922 -102.621 411.835L-93.8452 427.035C-92.7407 428.948 -90.2942 429.603 -88.3811 428.499L-28.9222 394.17C-27.0092 393.066 -26.3536 390.619 -27.4581 388.706L-36.234 373.506C-37.3385 371.593 -39.7849 370.938 -41.6981 372.042L-101.157 406.371Z" fill="#EFEFEF"/>
<path d="M1035.69 332C1043.34 327.582 1053.12 330.204 1057.54 337.856L1191.66 570.158C1196.08 577.81 1193.46 587.596 1185.81 592.014L1012.98 691.797C1005.32 696.215 995.537 693.593 991.119 685.941L857 453.64C852.582 445.987 855.204 436.201 862.856 431.783L1035.69 332ZM887.754 465.355C883.928 467.564 882.617 472.456 884.826 476.283L999.796 675.416C1002 679.242 1006.9 680.553 1010.72 678.344L1175.28 583.337C1179.11 581.128 1180.42 576.235 1178.21 572.409L1063.24 373.275C1061.03 369.449 1056.14 368.138 1052.31 370.347L887.754 465.355ZM922.843 406.371C920.93 407.475 920.274 409.922 921.379 411.835L930.155 427.035C931.259 428.948 933.706 429.603 935.619 428.499L995.078 394.17C996.991 393.066 997.646 390.619 996.542 388.706L987.766 373.506C986.662 371.593 984.215 370.938 982.302 372.042L922.843 406.371Z" fill="#EFEFEF"/>
</g>
<defs>
<clipPath id="clip0_522_472">
<rect width="1024" height="1024" fill="white"/>
</clipPath>
<clipPath id="clip1_522_472">
<rect width="295" height="262" fill="white" transform="translate(319 -39.5) rotate(-30)"/>
</clipPath>
<clipPath id="clip2_522_472">
<rect width="295" height="262" fill="white" transform="translate(319 984.5) rotate(-30)"/>
</clipPath>
</defs>
</svg>
