<svg width="1024" height="1024" viewBox="0 0 1024 1024" fill="none" xmlns="http://www.w3.org/2000/svg">
<g opacity="0.5" clip-path="url(#clip0_525_500)">
<path d="M498.009 -162C505.662 -166.418 515.447 -163.796 519.865 -156.144L640.004 51.9418C644.422 59.5945 641.8 69.38 634.147 73.7982L479.995 162.798C472.342 167.217 462.556 164.595 458.138 156.942L338 -51.1436C333.582 -58.7963 336.204 -68.5817 343.856 -73L498.009 -162ZM365.79 -42.1825C361.963 -39.9734 360.652 -35.0807 362.861 -31.2543L466.379 148.043C468.588 151.87 473.481 153.181 477.307 150.972L625.249 65.5575C629.075 63.3484 630.386 58.4556 628.177 54.6293L524.659 -124.668C522.45 -128.495 517.557 -129.806 513.731 -127.597L365.79 -42.1825ZM397.289 -95.4877C395.376 -94.3831 394.72 -91.9368 395.825 -90.0236L403.411 -76.8844C404.515 -74.9712 406.961 -74.3157 408.875 -75.4203L462.15 -106.179C464.063 -107.283 464.718 -109.73 463.614 -111.643L456.028 -124.782C454.923 -126.695 452.477 -127.351 450.564 -126.246L397.289 -95.4877Z" fill="#5B5B5B"/>
<path d="M498.009 862C505.662 857.582 515.447 860.204 519.865 867.856L640.004 1075.94C644.422 1083.59 641.8 1093.38 634.147 1097.8L479.995 1186.8C472.342 1191.22 462.556 1188.59 458.138 1180.94L338 972.856C333.582 965.204 336.204 955.418 343.856 951L498.009 862ZM365.79 981.817C361.963 984.027 360.652 988.919 362.861 992.746L466.379 1172.04C468.588 1175.87 473.481 1177.18 477.307 1174.97L625.249 1089.56C629.075 1087.35 630.386 1082.46 628.177 1078.63L524.659 899.332C522.45 895.505 517.557 894.194 513.731 896.403L365.79 981.817ZM397.289 928.512C395.376 929.617 394.72 932.063 395.825 933.976L403.411 947.116C404.515 949.029 406.961 949.684 408.875 948.58L462.15 917.821C464.063 916.717 464.718 914.27 463.614 912.357L456.028 899.218C454.923 897.305 452.477 896.649 450.564 897.754L397.289 928.512Z" fill="#5B5B5B"/>
<path d="M-2.99107 329C4.66157 324.582 14.4471 327.204 18.8653 334.856L162.9 584.331C167.318 591.984 164.696 601.769 157.043 606.187L2.89059 695.187C-4.7621 699.606 -14.5475 696.984 -18.9658 689.331L-163 439.856C-167.418 432.204 -164.796 422.418 -157.144 418L-2.99107 329ZM-111.314 490.207C-115.14 492.417 -116.451 497.309 -114.242 501.136L-10.7251 680.432C-8.51597 684.259 -3.62319 685.57 0.20313 683.361L148.145 597.947C151.971 595.737 153.282 590.845 151.073 587.018L47.5557 407.722C45.3467 403.895 40.4538 402.584 36.6275 404.793L-111.314 490.207ZM-148.245 426.241C-152.071 428.45 -153.382 433.343 -151.173 437.169L-131.656 470.974C-129.447 474.8 -124.554 476.111 -120.728 473.902L27.2126 388.488C31.039 386.279 32.35 381.386 30.1408 377.56L10.6237 343.755C8.4146 339.929 3.52187 338.618 -0.304465 340.827L-148.245 426.241Z" fill="#5B5B5B"/>
<path d="M1010.01 329C1017.66 324.582 1027.45 327.204 1031.87 334.856L1175.9 584.331C1180.32 591.984 1177.7 601.769 1170.04 606.187L1015.89 695.187C1008.24 699.606 998.452 696.984 994.034 689.331L850 439.856C845.582 432.204 848.204 422.418 855.856 418L1010.01 329ZM901.686 490.207C897.86 492.417 896.549 497.309 898.758 501.136L1002.27 680.432C1004.48 684.259 1009.38 685.57 1013.2 683.361L1161.14 597.947C1164.97 595.737 1166.28 590.845 1164.07 587.018L1060.56 407.722C1058.35 403.895 1053.45 402.584 1049.63 404.793L901.686 490.207ZM864.755 426.241C860.929 428.45 859.618 433.343 861.827 437.169L881.344 470.974C883.553 474.8 888.446 476.111 892.272 473.902L1040.21 388.488C1044.04 386.279 1045.35 381.386 1043.14 377.56L1023.62 343.755C1021.41 339.929 1016.52 338.618 1012.7 340.827L864.755 426.241Z" fill="#5B5B5B"/>
</g>
<defs>
<clipPath id="clip0_525_500">
<rect width="1024" height="1024" fill="white"/>
</clipPath>
</defs>
</svg>
