<svg width="1024" height="1024" viewBox="0 0 1024 1024" fill="none" xmlns="http://www.w3.org/2000/svg">
<g opacity="0.5" clip-path="url(#clip0_527_523)">
<g clip-path="url(#clip1_527_523)">
<path d="M-133.032 441.746C-132.544 437.406 -130.017 433.485 -126.225 431.296L-6.46967 362.155C-2.67743 359.966 1.95232 359.688 5.98386 361.485L105.659 405.064C111.702 407.696 115.011 414.235 113.668 420.665L71.6547 615.24C70.8498 619.031 68.4418 622.351 65.0488 624.31C61.6557 626.269 57.6268 626.666 53.8911 625.496L-135.622 564.593C-141.913 562.57 -145.871 556.406 -145.128 549.856L-133.032 441.746ZM-102.355 450.514C-103.282 452.712 -102.434 455.217 -100.378 456.358L-44.1958 487.524L-114.102 536.068C-116.062 537.399 -116.65 540.067 -115.44 542.163C-114.23 544.259 -111.654 545.033 -109.493 544.052L-9.07929 496.723C-8.8797 496.608 -8.63022 496.464 -8.43063 496.348L82.7641 433.052C84.7234 431.721 85.3119 429.053 84.1019 426.957C82.892 424.862 80.3157 424.087 78.1547 425.069L1.24015 461.358L2.34055 397.12C2.38011 394.768 0.605819 392.732 -1.73222 392.486C-4.07026 392.239 -6.25032 393.764 -6.7832 396.067L-23.6529 470.674L-96.7281 447.93C-98.9895 447.24 -101.4 448.366 -102.355 450.514Z" fill="#5B5B5B"/>
</g>
<g clip-path="url(#clip2_527_523)">
<path d="M890.968 440.746C891.456 436.406 893.983 432.485 897.775 430.296L1017.53 361.155C1021.32 358.966 1025.95 358.688 1029.98 360.485L1129.66 404.064C1135.7 406.696 1139.01 413.235 1137.67 419.665L1095.65 614.24C1094.85 618.031 1092.44 621.351 1089.05 623.31C1085.66 625.269 1081.63 625.666 1077.89 624.496L888.378 563.593C882.087 561.57 878.129 555.406 878.872 548.856L890.968 440.746ZM921.645 449.514C920.718 451.712 921.566 454.217 923.622 455.358L979.804 486.524L909.898 535.068C907.938 536.399 907.35 539.067 908.56 541.163C909.77 543.259 912.346 544.033 914.507 543.052L1014.92 495.723C1015.12 495.608 1015.37 495.464 1015.57 495.348L1106.76 432.052C1108.72 430.721 1109.31 428.053 1108.1 425.957C1106.89 423.862 1104.32 423.087 1102.15 424.069L1025.24 460.358L1026.34 396.12C1026.38 393.768 1024.61 391.732 1022.27 391.486C1019.93 391.239 1017.75 392.764 1017.22 395.067L1000.35 469.674L927.272 446.93C925.01 446.24 922.6 447.366 921.645 449.514Z" fill="#5B5B5B"/>
</g>
<g clip-path="url(#clip3_527_523)">
<path d="M345.029 -27.4953C344.803 -30.8867 346.786 -34.0522 349.913 -35.3375L463.564 -83.2873L561.916 -157.738C564.617 -159.759 568.35 -159.893 571.149 -158.045L610.055 -132.357C618.427 -126.856 619.696 -115.06 612.757 -107.878L553.677 -46.8065C548.659 -41.5994 540.732 -40.4292 534.427 -43.9486L463.564 -83.2873L462.201 -2.24856C462.097 4.97079 457.12 11.2506 450.101 12.9935L367.715 33.5968C357.983 36.0403 348.444 29.0189 347.866 19.018L345.029 -27.4953ZM480.04 -55.8495L526.663 -29.9972C539.315 -22.9834 555.125 -25.2989 565.206 -35.738L611.315 -83.3747L653.065 -11.0615C658.565 -1.53525 656.87 10.5286 648.954 18.2169L573.326 91.3255C569.559 95.0013 564.926 97.6763 559.902 99.0755L458.774 128.017C448.133 130.985 436.838 126.421 431.338 116.895L389.588 44.582L453.965 28.487C468.003 25.0011 477.957 12.4416 478.209 -2.02216L479.088 -55.2995L480.04 -55.8495Z" fill="#5B5B5B"/>
</g>
<g clip-path="url(#clip4_527_523)">
<path d="M345.029 996.505C344.803 993.113 346.786 989.948 349.913 988.662L463.564 940.713L561.916 866.262C564.617 864.241 568.35 864.107 571.149 865.955L610.055 891.643C618.427 897.144 619.696 908.94 612.757 916.122L553.677 977.194C548.659 982.401 540.732 983.571 534.427 980.051L463.564 940.713L462.201 1021.75C462.097 1028.97 457.12 1035.25 450.101 1036.99L367.715 1057.6C357.983 1060.04 348.444 1053.02 347.866 1043.02L345.029 996.505ZM480.04 968.15L526.663 994.003C539.315 1001.02 555.125 998.701 565.206 988.262L611.315 940.625L653.065 1012.94C658.565 1022.46 656.87 1034.53 648.954 1042.22L573.326 1115.33C569.559 1119 564.926 1121.68 559.902 1123.08L458.774 1152.02C448.133 1154.99 436.838 1150.42 431.338 1140.9L389.588 1068.58L453.965 1052.49C468.003 1049 477.957 1036.44 478.209 1021.98L479.088 968.7L480.04 968.15Z" fill="#5B5B5B"/>
</g>
</g>
<defs>
<clipPath id="clip0_527_523">
<rect width="1024" height="1024" fill="white"/>
</clipPath>
<clipPath id="clip1_527_523">
<rect width="295" height="295" fill="white" transform="translate(-201 458.5) rotate(-30)"/>
</clipPath>
<clipPath id="clip2_527_523">
<rect width="295" height="295" fill="white" transform="translate(823 457.5) rotate(-30)"/>
</clipPath>
<clipPath id="clip3_527_523">
<rect width="320" height="256" fill="white" transform="translate(309 -31) rotate(-30)"/>
</clipPath>
<clipPath id="clip4_527_523">
<rect width="320" height="256" fill="white" transform="translate(309 993) rotate(-30)"/>
</clipPath>
</defs>
</svg>
