<svg width="252" height="199" viewBox="0 0 252 199" fill="none" xmlns="http://www.w3.org/2000/svg">
<g clip-path="url(#clip0_426_423)">
<path fill-rule="evenodd" clip-rule="evenodd" d="M75.12 1.50001C75.12 0.671578 75.7915 0 76.62 0H185.426C186.255 0 186.926 0.671573 186.926 1.5V185.426C186.926 186.255 186.255 186.926 185.426 186.926H76.62C75.7915 186.926 75.12 186.255 75.12 185.426V1.50001ZM91.7162 50.6623H170.33V48.0418H177.318L179.065 49.7888V56.7767H176.445V173.824H179.065V180.812L177.318 182.559H170.33V179.938H91.7162V182.559H84.7283L82.9814 180.812V173.824H85.6018V56.7767H82.9814V49.7888L84.7283 48.0418H91.7162V50.6623ZM182.559 4.36744H79.4874V43.6744H182.559V4.36744Z" fill="#EFEFEF" fill-opacity="0.75"/>
<rect x="80.3609" y="5.24121" width="101.325" height="37.56" fill="#EFEFEF"/>
<rect x="86.4753" y="51.5356" width="89.0958" height="127.529" rx="0.5" fill="#EFEFEF"/>
<g filter="url(#filter0_d_426_423)">
<path fill-rule="evenodd" clip-rule="evenodd" d="M0.258818 42.0704C0.115876 41.5369 0.43246 40.9886 0.965926 40.8457L100.281 14.2343C100.814 14.0913 101.363 14.4079 101.506 14.9414L141.682 164.88C141.825 165.413 141.508 165.962 140.975 166.105L41.6595 192.716C41.126 192.859 40.5777 192.542 40.4347 192.009L0.258818 42.0704ZM17.1774 54.5876L93.1126 34.2408L92.4344 31.7097L99.1842 29.9011L101.324 31.1364L103.132 37.8862L100.601 38.5644L130.895 151.623L133.426 150.945L135.235 157.695L134 159.835L127.25 161.643L126.572 159.112L50.6365 179.459L51.3148 181.99L44.565 183.799L42.4254 182.563L40.6168 175.814L43.1479 175.135L12.8538 62.0762L10.3227 62.7544L8.51406 56.0046L9.74936 53.865L16.4992 52.0564L17.1774 54.5876ZM70.8728 22.1143L30.3741 32.9659L33.7324 45.4996C33.8754 46.033 34.4237 46.3496 34.9572 46.2067L73.5241 35.8727C74.0576 35.7298 74.3742 35.1814 74.2312 34.648L70.8728 22.1143Z" fill="#EFEFEF" fill-opacity="0.75"/>
<path d="M31.2178 32.74L70.0291 22.3405L73.2909 34.5134C73.3623 34.7802 73.204 35.0543 72.9373 35.1258L35.0919 45.2665C34.8252 45.3379 34.551 45.1796 34.4795 44.9129L31.2178 32.74Z" fill="#EFEFEF"/>
<rect x="12.3411" y="56.7881" width="89.0958" height="127.529" rx="0.5" transform="rotate(-15 12.3411 56.7881)" fill="#EFEFEF"/>
</g>
<g filter="url(#filter1_d_426_423)">
<path fill-rule="evenodd" clip-rule="evenodd" d="M181.127 22.1145L151.719 14.2346C151.185 14.0917 150.637 14.4083 150.494 14.9418L110.318 164.88C110.175 165.414 110.492 165.962 111.025 166.105L210.34 192.716C210.874 192.859 211.422 192.543 211.565 192.009L251.741 42.0708C251.884 41.5373 251.567 40.989 251.034 40.8461L221.626 32.9661L218.267 45.4996C218.124 46.0331 217.576 46.3497 217.043 46.2067L178.476 35.8728C177.942 35.7298 177.626 35.1815 177.769 34.648L181.127 22.1145ZM158.887 34.2416L234.823 54.5884L235.501 52.0572L242.251 53.8658L243.486 56.0054L241.677 62.7552L239.146 62.077L208.852 175.136L211.383 175.814L209.575 182.564L207.435 183.799L200.685 181.991L201.363 179.46L125.428 159.113L124.75 161.644L118 159.835L116.765 157.696L118.573 150.946L121.105 151.624L151.399 38.5652L148.868 37.8869L150.676 31.1371L152.816 29.9018L159.566 31.7104L158.887 34.2416Z" fill="#EFEFEF" fill-opacity="0.75"/>
<path d="M181.971 22.3403L220.782 32.7398L217.52 44.9127C217.449 45.1794 217.175 45.3377 216.908 45.2663L179.063 35.1256C178.796 35.0541 178.638 34.78 178.709 34.5132L181.971 22.3403Z" fill="#EFEFEF"/>
<rect x="153.599" y="33.7288" width="89.0958" height="127.529" rx="0.5" transform="rotate(15 153.599 33.7288)" fill="#EFEFEF"/>
</g>
<g filter="url(#filter2_d_426_423)">
<rect x="13.9758" y="143.252" width="223.613" height="55.9032" rx="2" fill="#D9D9D9"/>
</g>
</g>
<defs>
<filter id="filter0_d_426_423" x="-7.77551" y="6.19995" width="157.492" height="194.551" filterUnits="userSpaceOnUse" color-interpolation-filters="sRGB">
<feFlood flood-opacity="0" result="BackgroundImageFix"/>
<feColorMatrix in="SourceAlpha" type="matrix" values="0 0 0 0 0 0 0 0 0 0 0 0 0 0 0 0 0 0 127 0" result="hardAlpha"/>
<feOffset/>
<feGaussianBlur stdDeviation="4"/>
<feComposite in2="hardAlpha" operator="out"/>
<feColorMatrix type="matrix" values="0 0 0 0 0 0 0 0 0 0 0 0 0 0 0 0 0 0 0.5 0"/>
<feBlend mode="normal" in2="BackgroundImageFix" result="effect1_dropShadow_426_423"/>
<feBlend mode="normal" in="SourceGraphic" in2="effect1_dropShadow_426_423" result="shape"/>
</filter>
<filter id="filter1_d_426_423" x="102.284" y="6.20044" width="157.492" height="194.55" filterUnits="userSpaceOnUse" color-interpolation-filters="sRGB">
<feFlood flood-opacity="0" result="BackgroundImageFix"/>
<feColorMatrix in="SourceAlpha" type="matrix" values="0 0 0 0 0 0 0 0 0 0 0 0 0 0 0 0 0 0 127 0" result="hardAlpha"/>
<feOffset/>
<feGaussianBlur stdDeviation="4"/>
<feComposite in2="hardAlpha" operator="out"/>
<feColorMatrix type="matrix" values="0 0 0 0 0 0 0 0 0 0 0 0 0 0 0 0 0 0 0.5 0"/>
<feBlend mode="normal" in2="BackgroundImageFix" result="effect1_dropShadow_426_423"/>
<feBlend mode="normal" in="SourceGraphic" in2="effect1_dropShadow_426_423" result="shape"/>
</filter>
<filter id="filter2_d_426_423" x="5.97583" y="135.252" width="239.613" height="71.9033" filterUnits="userSpaceOnUse" color-interpolation-filters="sRGB">
<feFlood flood-opacity="0" result="BackgroundImageFix"/>
<feColorMatrix in="SourceAlpha" type="matrix" values="0 0 0 0 0 0 0 0 0 0 0 0 0 0 0 0 0 0 127 0" result="hardAlpha"/>
<feOffset/>
<feGaussianBlur stdDeviation="4"/>
<feComposite in2="hardAlpha" operator="out"/>
<feColorMatrix type="matrix" values="0 0 0 0 0 0 0 0 0 0 0 0 0 0 0 0 0 0 0.5 0"/>
<feBlend mode="normal" in2="BackgroundImageFix" result="effect1_dropShadow_426_423"/>
<feBlend mode="normal" in="SourceGraphic" in2="effect1_dropShadow_426_423" result="shape"/>
</filter>
<clipPath id="clip0_426_423">
<rect width="252" height="199" fill="white"/>
</clipPath>
</defs>
</svg>
