<svg width="640" height="512" viewBox="0 0 640 512" fill="none" xmlns="http://www.w3.org/2000/svg">
<path fill-rule="evenodd" clip-rule="evenodd" d="M481.562 21.649C505.455 21.6497 524.825 41.0347 524.825 64.9471V438.393C524.825 462.306 505.455 481.691 481.562 481.691H176.014C152.12 481.691 132.751 462.306 132.751 438.393V64.9471C132.751 41.0343 152.12 21.649 176.014 21.649H481.562ZM176.014 43.2981C164.067 43.2981 154.382 52.9907 154.382 64.9471V438.393C154.382 450.35 164.067 460.042 176.014 460.042H481.562C493.508 460.042 503.193 450.349 503.193 438.393V64.9471C503.193 52.9911 493.508 43.2987 481.562 43.2981H176.014Z" fill="#EFEFEF"/>
<path d="M280.232 45.5467L240.037 60.5867C236.838 61.76 234.706 64.8533 234.706 68.2667C234.706 71.68 236.838 74.7733 240.037 75.9467L280.232 90.9867L295.265 131.2C296.438 134.4 299.529 136.533 302.941 136.533C306.353 136.533 309.445 134.4 310.618 131.2L325.651 90.9867L365.846 75.9467C369.044 74.7733 371.176 71.68 371.176 68.2667C371.176 64.8533 369.044 61.76 365.846 60.5867L325.651 45.5467L310.618 5.33333C309.445 2.13333 306.353 0 302.941 0C299.529 0 296.438 2.13333 295.265 5.33333L280.232 45.5467ZM37.9963 125.013C33.1985 126.827 30 131.413 30 136.533C30 141.653 33.1985 146.24 37.9963 148.053L98.2353 170.667L120.838 230.933C122.651 235.733 127.235 238.933 132.353 238.933C137.471 238.933 142.055 235.733 143.868 230.933L166.471 170.667L226.71 148.053C231.507 146.24 234.706 141.653 234.706 136.533C234.706 131.413 231.507 126.827 226.71 125.013L166.471 102.4L143.868 42.1333C142.055 37.3333 137.471 34.1333 132.353 34.1333C127.235 34.1333 122.651 37.3333 120.838 42.1333L98.2353 102.4L37.9963 125.013ZM413.29 398.08C408.493 399.893 405.294 404.48 405.294 409.6C405.294 414.72 408.493 419.307 413.29 421.12L473.529 443.733L496.132 504C497.945 508.8 502.529 512 507.647 512C512.765 512 517.349 508.8 519.162 504L541.765 443.733L602.004 421.12C606.801 419.307 610 414.72 610 409.6C610 404.48 606.801 399.893 602.004 398.08L541.765 375.467L519.162 315.2C517.349 310.4 512.765 307.2 507.647 307.2C502.529 307.2 497.945 310.4 496.132 315.2L473.529 375.467L413.29 398.08Z" fill="#EFEFEF"/>
</svg>
