<svg width="128" height="214" viewBox="0 0 128 214" fill="none" xmlns="http://www.w3.org/2000/svg">
<g clip-path="url(#clip0_426_413)">
<path fill-rule="evenodd" clip-rule="evenodd" d="M0 3.00001C0 1.34315 1.34315 0 3 0H125C126.657 0 128 1.34315 128 3V211C128 212.657 126.657 214 125 214H3C1.34315 214 0 212.657 0 211V3.00001ZM19 58H109V55H117L119 57V65H116V199H119V207L117 209H109V206H19V209H11L9 207V199H12V65H9V57L11 55H19V58ZM123 5H5V50H123V5Z" fill="#EFEFEF" fill-opacity="0.75"/>
<rect x="6" y="6" width="116" height="43" fill="#EFEFEF"/>
<rect x="13" y="59" width="102" height="146" rx="1" fill="#EFEFEF"/>
</g>
<defs>
<clipPath id="clip0_426_413">
<rect width="128" height="214" fill="white"/>
</clipPath>
</defs>
</svg>
