<svg width="512" height="512" viewBox="0 0 512 512" fill="none" xmlns="http://www.w3.org/2000/svg">
<path d="M23.6855 158.164C55.2667 126.708 106.468 126.708 138.049 158.164L191.697 211.599C223.279 243.055 223.279 294.053 191.697 325.508C160.117 356.964 108.915 356.964 77.3347 325.508L23.6855 272.073C-7.89522 240.617 -7.89509 189.619 23.6855 158.164Z" fill="#EFEFEF"/>
<path d="M56.8067 190.204C88.3881 158.749 139.591 158.749 171.171 190.204L282.002 300.595L209.445 276.277L244.3 338.146L225.663 356.709C193.616 388.628 141.659 388.628 109.613 356.709L56.8067 304.113C25.2265 272.658 25.2265 221.66 56.8067 190.204Z" fill="#EFEFEF"/>
<path d="M196.773 154.939C228.82 123.02 280.778 123.02 312.824 154.939L365.63 207.535C397.21 238.991 397.21 289.989 365.63 321.444C334.048 352.9 282.846 352.9 251.266 321.444L140.435 211.055L196.773 154.939Z" fill="#EFEFEF"/>
<path d="M488.315 158.266C456.734 126.81 405.532 126.81 373.951 158.266L230.621 301.027L286.822 357.004C318.944 388.999 371.026 388.999 403.148 357.004L488.315 272.176C519.895 240.72 519.895 189.721 488.315 158.266Z" fill="#EFEFEF"/>
</svg>
