<svg width="512" height="512" viewBox="0 0 512 512" fill="none" xmlns="http://www.w3.org/2000/svg">
<path d="M81.7641 182.427C105.45 158.772 143.851 158.772 167.537 182.427L207.773 222.61C231.459 246.265 231.459 284.616 207.773 308.27C184.088 331.925 145.686 331.925 122.001 308.27L81.7641 268.087C58.0786 244.432 58.0787 206.081 81.7641 182.427Z" fill="#EFEFEF"/>
<path d="M106.605 206.521C130.291 182.867 168.693 182.867 192.378 206.521L275.501 289.535L221.084 271.248L247.225 317.774L233.247 331.733C209.212 355.736 170.244 355.736 146.21 331.733L106.605 292.181C82.9199 268.527 82.9199 230.176 106.605 206.521Z" fill="#EFEFEF"/>
<path d="M211.58 180.002C235.615 155.999 274.583 155.999 298.618 180.002L338.222 219.554C361.907 243.209 361.907 281.56 338.222 305.214C314.536 328.869 276.134 328.869 252.449 305.214L169.326 222.201L211.58 180.002Z" fill="#EFEFEF"/>
<path d="M430.236 182.504C406.55 158.849 368.149 158.849 344.463 182.504L236.966 289.86L279.116 331.955C303.208 356.015 342.269 356.015 366.361 331.955L430.236 268.164C453.921 244.509 453.921 206.158 430.236 182.504Z" fill="#EFEFEF"/>
</svg>
